<?xml version="1.0" encoding="utf-8"?>
<!-- Generator: Adobe Illustrator 18.1.1, SVG Export Plug-In . SVG Version: 6.00 Build 0)  -->
<svg version="1.1" id="Layer_1" xmlns="http://www.w3.org/2000/svg" xmlns:xlink="http://www.w3.org/1999/xlink" x="0px" y="0px"
	 viewBox="0 0 40 40" enable-background="new 0 0 40 40" xml:space="preserve">
<g>
	<path fill="#3949AB" d="M20,1C9.5,1,1,9.5,1,20c0,10.5,8.5,19,19,19c10.5,0,19-8.5,19-19C39,9.5,30.5,1,20,1z M20,36.3
		C11,36.3,3.7,29,3.7,20C3.7,11,11,3.7,20,3.7c9,0,16.3,7.3,16.3,16.3C36.3,29,29,36.3,20,36.3z"/>
	<path fill="#3949AB" d="M28.7,13.7c-0.8-0.6-1.9-0.4-2.4,0.4l-7.3,10l-5.3-6.3c-0.6-0.7-1.7-0.8-2.5-0.2c-0.7,0.6-0.8,1.7-0.2,2.5
		l6,7.2c0.2,0.2,0.4,0.4,0.7,0.5c0.1,0.2,0.3,0.4,0.5,0.5c0.3,0.2,0.7,0.3,1,0.3c0.5,0,1.1-0.3,1.4-0.7l8.5-11.7
		C29.7,15.4,29.5,14.3,28.7,13.7z"/>
</g>
</svg>
